<svg width="131" height="33" viewBox="0 0 131 33" fill="none" xmlns="http://www.w3.org/2000/svg">
<rect x="89" y="7" width="42" height="20" rx="10" fill="#18181B"/>
<path d="M97.7173 21V13.7273H100.501C101.027 13.7273 101.464 13.8101 101.812 13.9759C102.162 14.1392 102.424 14.3629 102.597 14.647C102.772 14.9311 102.859 15.2531 102.859 15.6129C102.859 15.9089 102.803 16.1622 102.689 16.3729C102.575 16.5812 102.423 16.7505 102.231 16.8807C102.039 17.0109 101.825 17.1044 101.588 17.1612V17.2322C101.846 17.2464 102.094 17.3258 102.33 17.4702C102.569 17.6122 102.765 17.8134 102.916 18.0739C103.068 18.3343 103.143 18.6491 103.143 19.0185C103.143 19.3949 103.052 19.7334 102.87 20.0341C102.688 20.3324 102.413 20.5679 102.046 20.7408C101.679 20.9136 101.218 21 100.661 21H97.7173ZM99.0348 19.8991H100.452C100.93 19.8991 101.274 19.808 101.485 19.6257C101.698 19.4411 101.805 19.2043 101.805 18.9155C101.805 18.7 101.751 18.5059 101.645 18.3331C101.538 18.1579 101.387 18.0206 101.19 17.9212C100.994 17.8194 100.759 17.7685 100.487 17.7685H99.0348V19.8991ZM99.0348 16.8203H100.338C100.565 16.8203 100.77 16.7789 100.952 16.696C101.135 16.6108 101.278 16.4912 101.382 16.3374C101.489 16.1811 101.542 15.9964 101.542 15.7834C101.542 15.5017 101.442 15.2696 101.244 15.0874C101.047 14.9051 100.755 14.8139 100.366 14.8139H99.0348V16.8203ZM104.29 21V13.7273H109.02V14.8317H105.607V16.8061H108.775V17.9105H105.607V19.8956H109.048V21H104.29ZM110.044 14.8317V13.7273H115.847V14.8317H113.599V21H112.292V14.8317H110.044ZM117.02 21H115.614L118.175 13.7273H119.801L122.365 21H120.959L119.016 15.2188H118.959L117.02 21ZM117.067 18.1484H120.902V19.2067H117.067V18.1484Z" fill="#71717A"/>
<rect x="54" y="6" width="3" height="23" fill="#56E1CD"/>
<path d="M5.09091 15H1.14773V3.36364H5.17045C6.32576 3.36364 7.31818 3.59659 8.14773 4.0625C8.98106 4.52462 9.62121 5.18939 10.0682 6.05682C10.5152 6.92424 10.7386 7.96212 10.7386 9.17045C10.7386 10.3826 10.5133 11.4242 10.0625 12.2955C9.61553 13.1667 8.9697 13.8352 8.125 14.3011C7.28409 14.767 6.27273 15 5.09091 15ZM3.25568 13.1761H4.98864C5.79924 13.1761 6.47538 13.0284 7.01705 12.733C7.55871 12.4337 7.96591 11.9886 8.23864 11.3977C8.51136 10.803 8.64773 10.0606 8.64773 9.17045C8.64773 8.2803 8.51136 7.54167 8.23864 6.95455C7.96591 6.36364 7.5625 5.92235 7.02841 5.63068C6.49811 5.33523 5.83902 5.1875 5.05114 5.1875H3.25568V13.1761ZM16.5142 15.1705C15.6392 15.1705 14.8835 14.9886 14.2472 14.625C13.6146 14.2576 13.1278 13.7386 12.7869 13.0682C12.446 12.3939 12.2756 11.6004 12.2756 10.6875C12.2756 9.78977 12.446 9.00189 12.7869 8.32386C13.1316 7.64205 13.6127 7.11174 14.2301 6.73295C14.8475 6.35038 15.5729 6.15909 16.4062 6.15909C16.9441 6.15909 17.4517 6.24621 17.929 6.42045C18.41 6.59091 18.8343 6.85606 19.2017 7.21591C19.5729 7.57576 19.8646 8.03409 20.0767 8.59091C20.2888 9.14394 20.3949 9.80303 20.3949 10.5682V11.1989H13.2415V9.8125H18.4233C18.4195 9.41856 18.3343 9.06818 18.1676 8.76136C18.0009 8.45076 17.768 8.20644 17.4688 8.02841C17.1733 7.85038 16.8286 7.76136 16.4347 7.76136C16.0142 7.76136 15.6449 7.86364 15.3267 8.06818C15.0085 8.26894 14.7604 8.53409 14.5824 8.86364C14.4081 9.18939 14.3191 9.54735 14.3153 9.9375V11.1477C14.3153 11.6553 14.4081 12.0909 14.5938 12.4545C14.7794 12.8144 15.0388 13.0909 15.3722 13.2841C15.7055 13.4735 16.0956 13.5682 16.5426 13.5682C16.8419 13.5682 17.1127 13.5265 17.3551 13.4432C17.5975 13.3561 17.8078 13.2292 17.9858 13.0625C18.1638 12.8958 18.2983 12.6894 18.3892 12.4432L20.3097 12.6591C20.1884 13.1667 19.9574 13.6098 19.6165 13.9886C19.2794 14.3636 18.8475 14.6553 18.321 14.8636C17.7945 15.0682 17.1922 15.1705 16.5142 15.1705ZM29.6804 6.27273L26.5724 15H24.2997L21.1918 6.27273H23.3849L25.3906 12.7557H25.4815L27.4929 6.27273H29.6804ZM34.6705 15.1705C33.7955 15.1705 33.0398 14.9886 32.4034 14.625C31.7708 14.2576 31.2841 13.7386 30.9432 13.0682C30.6023 12.3939 30.4318 11.6004 30.4318 10.6875C30.4318 9.78977 30.6023 9.00189 30.9432 8.32386C31.2879 7.64205 31.7689 7.11174 32.3864 6.73295C33.0038 6.35038 33.7292 6.15909 34.5625 6.15909C35.1004 6.15909 35.608 6.24621 36.0852 6.42045C36.5663 6.59091 36.9905 6.85606 37.358 7.21591C37.7292 7.57576 38.0208 8.03409 38.233 8.59091C38.4451 9.14394 38.5511 9.80303 38.5511 10.5682V11.1989H31.3977V9.8125H36.5795C36.5758 9.41856 36.4905 9.06818 36.3239 8.76136C36.1572 8.45076 35.9242 8.20644 35.625 8.02841C35.3295 7.85038 34.9848 7.76136 34.5909 7.76136C34.1705 7.76136 33.8011 7.86364 33.483 8.06818C33.1648 8.26894 32.9167 8.53409 32.7386 8.86364C32.5644 9.18939 32.4754 9.54735 32.4716 9.9375V11.1477C32.4716 11.6553 32.5644 12.0909 32.75 12.4545C32.9356 12.8144 33.1951 13.0909 33.5284 13.2841C33.8617 13.4735 34.2519 13.5682 34.6989 13.5682C34.9981 13.5682 35.2689 13.5265 35.5114 13.4432C35.7538 13.3561 35.964 13.2292 36.142 13.0625C36.3201 12.8958 36.4545 12.6894 36.5455 12.4432L38.4659 12.6591C38.3447 13.1667 38.1136 13.6098 37.7727 13.9886C37.4356 14.3636 37.0038 14.6553 36.4773 14.8636C35.9508 15.0682 35.3485 15.1705 34.6705 15.1705ZM42.348 3.36364V15H40.2912V3.36364H42.348ZM48.2699 15.1705C47.4176 15.1705 46.679 14.983 46.054 14.608C45.429 14.233 44.9441 13.7083 44.5994 13.0341C44.2585 12.3598 44.0881 11.572 44.0881 10.6705C44.0881 9.76894 44.2585 8.97917 44.5994 8.30114C44.9441 7.62311 45.429 7.09659 46.054 6.72159C46.679 6.34659 47.4176 6.15909 48.2699 6.15909C49.1222 6.15909 49.8608 6.34659 50.4858 6.72159C51.1108 7.09659 51.5938 7.62311 51.9347 8.30114C52.2794 8.97917 52.4517 9.76894 52.4517 10.6705C52.4517 11.572 52.2794 12.3598 51.9347 13.0341C51.5938 13.7083 51.1108 14.233 50.4858 14.608C49.8608 14.983 49.1222 15.1705 48.2699 15.1705ZM48.2812 13.5227C48.7434 13.5227 49.1297 13.3958 49.4403 13.142C49.7509 12.8845 49.982 12.5398 50.1335 12.108C50.2888 11.6761 50.3665 11.1951 50.3665 10.6648C50.3665 10.1307 50.2888 9.64773 50.1335 9.21591C49.982 8.7803 49.7509 8.43371 49.4403 8.17614C49.1297 7.91856 48.7434 7.78977 48.2812 7.78977C47.8078 7.78977 47.4138 7.91856 47.0994 8.17614C46.7888 8.43371 46.5559 8.7803 46.4006 9.21591C46.2491 9.64773 46.1733 10.1307 46.1733 10.6648C46.1733 11.1951 46.2491 11.6761 46.4006 12.108C46.5559 12.5398 46.7888 12.8845 47.0994 13.142C47.4138 13.3958 47.8078 13.5227 48.2812 13.5227ZM54.1974 18.2727V6.27273H56.2202V7.71591H56.3395C56.4455 7.50379 56.5952 7.27841 56.7884 7.03977C56.9815 6.79735 57.2429 6.59091 57.5724 6.42045C57.902 6.24621 58.3224 6.15909 58.8338 6.15909C59.508 6.15909 60.116 6.33144 60.6577 6.67614C61.2031 7.01705 61.6349 7.52273 61.9531 8.19318C62.2751 8.85985 62.4361 9.67803 62.4361 10.6477C62.4361 11.6061 62.2789 12.4205 61.9645 13.0909C61.6501 13.7614 61.2221 14.2727 60.6804 14.625C60.1387 14.9773 59.5251 15.1534 58.8395 15.1534C58.3395 15.1534 57.9247 15.0701 57.5952 14.9034C57.2656 14.7367 57.0005 14.536 56.7997 14.3011C56.6027 14.0625 56.4493 13.8371 56.3395 13.625H56.2543V18.2727H54.1974ZM56.2145 10.6364C56.2145 11.2008 56.294 11.6951 56.4531 12.1193C56.616 12.5436 56.849 12.875 57.152 13.1136C57.4588 13.3485 57.83 13.4659 58.2656 13.4659C58.7202 13.4659 59.1009 13.3447 59.4077 13.1023C59.7145 12.8561 59.9455 12.5208 60.1009 12.0966C60.2599 11.6686 60.3395 11.1818 60.3395 10.6364C60.3395 10.0947 60.2618 9.61364 60.1065 9.19318C59.9512 8.77273 59.7202 8.44318 59.4134 8.20455C59.1065 7.96591 58.724 7.84659 58.2656 7.84659C57.8262 7.84659 57.4531 7.96212 57.1463 8.19318C56.8395 8.42424 56.6065 8.74811 56.4474 9.16477C56.2921 9.58144 56.2145 10.072 56.2145 10.6364ZM68.0611 15.1705C67.1861 15.1705 66.4304 14.9886 65.794 14.625C65.1615 14.2576 64.6747 13.7386 64.3338 13.0682C63.9929 12.3939 63.8224 11.6004 63.8224 10.6875C63.8224 9.78977 63.9929 9.00189 64.3338 8.32386C64.6785 7.64205 65.1596 7.11174 65.777 6.73295C66.3944 6.35038 67.1198 6.15909 67.9531 6.15909C68.491 6.15909 68.9986 6.24621 69.4759 6.42045C69.9569 6.59091 70.3812 6.85606 70.7486 7.21591C71.1198 7.57576 71.4115 8.03409 71.6236 8.59091C71.8357 9.14394 71.9418 9.80303 71.9418 10.5682V11.1989H64.7884V9.8125H69.9702C69.9664 9.41856 69.8812 9.06818 69.7145 8.76136C69.5478 8.45076 69.3149 8.20644 69.0156 8.02841C68.7202 7.85038 68.3755 7.76136 67.9815 7.76136C67.5611 7.76136 67.1918 7.86364 66.8736 8.06818C66.5554 8.26894 66.3073 8.53409 66.1293 8.86364C65.955 9.18939 65.866 9.54735 65.8622 9.9375V11.1477C65.8622 11.6553 65.955 12.0909 66.1406 12.4545C66.3262 12.8144 66.5857 13.0909 66.919 13.2841C67.2524 13.4735 67.6425 13.5682 68.0895 13.5682C68.3887 13.5682 68.6596 13.5265 68.902 13.4432C69.1444 13.3561 69.3546 13.2292 69.5327 13.0625C69.7107 12.8958 69.8452 12.6894 69.9361 12.4432L71.8565 12.6591C71.7353 13.1667 71.5043 13.6098 71.1634 13.9886C70.8262 14.3636 70.3944 14.6553 69.8679 14.8636C69.3414 15.0682 68.7391 15.1705 68.0611 15.1705ZM73.6818 15V6.27273H75.6761V7.72727H75.767C75.9261 7.22348 76.1989 6.83523 76.5852 6.5625C76.9754 6.28598 77.4205 6.14773 77.9205 6.14773C78.0341 6.14773 78.161 6.15341 78.3011 6.16477C78.4451 6.17235 78.5644 6.18561 78.6591 6.20455V8.09659C78.572 8.06629 78.4337 8.03977 78.2443 8.01705C78.0587 7.99053 77.8788 7.97727 77.7045 7.97727C77.3295 7.97727 76.9924 8.05871 76.6932 8.22159C76.3977 8.38068 76.1648 8.60227 75.9943 8.88636C75.8239 9.17045 75.7386 9.49811 75.7386 9.86932V15H73.6818Z" fill="#56E1CD"/>
<path d="M1.14773 29V17.3636H5.51136C6.4053 17.3636 7.1553 17.5303 7.76136 17.8636C8.37121 18.197 8.83144 18.6553 9.14205 19.2386C9.45644 19.8182 9.61364 20.4773 9.61364 21.2159C9.61364 21.9621 9.45644 22.625 9.14205 23.2045C8.82765 23.7841 8.36364 24.2405 7.75 24.5739C7.13636 24.9034 6.38068 25.0682 5.48295 25.0682H2.59091V23.3352H5.19886C5.72159 23.3352 6.14962 23.2443 6.48295 23.0625C6.81629 22.8807 7.0625 22.6307 7.22159 22.3125C7.38447 21.9943 7.46591 21.6288 7.46591 21.2159C7.46591 20.803 7.38447 20.4394 7.22159 20.125C7.0625 19.8106 6.81439 19.5663 6.47727 19.392C6.14394 19.214 5.71402 19.125 5.1875 19.125H3.25568V29H1.14773ZM17.2755 29.1705C16.4232 29.1705 15.6846 28.983 15.0596 28.608C14.4346 28.233 13.9498 27.7083 13.6051 27.0341C13.2641 26.3598 13.0937 25.572 13.0937 24.6705C13.0937 23.7689 13.2641 22.9792 13.6051 22.3011C13.9498 21.6231 14.4346 21.0966 15.0596 20.7216C15.6846 20.3466 16.4232 20.1591 17.2755 20.1591C18.1278 20.1591 18.8664 20.3466 19.4914 20.7216C20.1164 21.0966 20.5994 21.6231 20.9403 22.3011C21.285 22.9792 21.4573 23.7689 21.4573 24.6705C21.4573 25.572 21.285 26.3598 20.9403 27.0341C20.5994 27.7083 20.1164 28.233 19.4914 28.608C18.8664 28.983 18.1278 29.1705 17.2755 29.1705ZM17.2869 27.5227C17.749 27.5227 18.1354 27.3958 18.446 27.142C18.7566 26.8845 18.9876 26.5398 19.1391 26.108C19.2945 25.6761 19.3721 25.1951 19.3721 24.6648C19.3721 24.1307 19.2945 23.6477 19.1391 23.2159C18.9876 22.7803 18.7566 22.4337 18.446 22.1761C18.1354 21.9186 17.749 21.7898 17.2869 21.7898C16.8134 21.7898 16.4195 21.9186 16.1051 22.1761C15.7945 22.4337 15.5615 22.7803 15.4062 23.2159C15.2547 23.6477 15.1789 24.1307 15.1789 24.6648C15.1789 25.1951 15.2547 25.6761 15.4062 26.108C15.5615 26.5398 15.7945 26.8845 16.1051 27.142C16.4195 27.3958 16.8134 27.5227 17.2869 27.5227ZM25.4431 29V20.2727H27.4374V21.7273H27.5283C27.6874 21.2235 27.9601 20.8352 28.3465 20.5625C28.7366 20.286 29.1817 20.1477 29.6817 20.1477C29.7953 20.1477 29.9222 20.1534 30.0624 20.1648C30.2063 20.1723 30.3256 20.1856 30.4203 20.2045V22.0966C30.3332 22.0663 30.195 22.0398 30.0056 22.017C29.82 21.9905 29.64 21.9773 29.4658 21.9773C29.0908 21.9773 28.7537 22.0587 28.4544 22.2216C28.159 22.3807 27.926 22.6023 27.7556 22.8864C27.5851 23.1705 27.4999 23.4981 27.4999 23.8693V29H25.4431ZM38.8535 20.2727V21.8636H33.8365V20.2727H38.8535ZM35.0751 18.1818H37.1319V26.375C37.1319 26.6515 37.1736 26.8636 37.2569 27.0114C37.3441 27.1553 37.4577 27.2538 37.5978 27.3068C37.738 27.3598 37.8933 27.3864 38.0638 27.3864C38.1925 27.3864 38.31 27.3769 38.416 27.358C38.5259 27.339 38.6092 27.322 38.666 27.3068L39.0126 28.9148C38.9028 28.9527 38.7456 28.9943 38.541 29.0398C38.3403 29.0852 38.0941 29.1117 37.8024 29.1193C37.2872 29.1345 36.8232 29.0568 36.4103 28.8864C35.9975 28.7121 35.6698 28.4432 35.4274 28.0795C35.1888 27.7159 35.0713 27.2614 35.0751 26.7159V18.1818ZM45.3251 29.1761C44.772 29.1761 44.2739 29.0777 43.8307 28.8807C43.3913 28.6799 43.0429 28.3845 42.7853 27.9943C42.5315 27.6042 42.4046 27.1231 42.4046 26.5511C42.4046 26.0587 42.4955 25.6515 42.6773 25.3295C42.8591 25.0076 43.1073 24.75 43.4216 24.5568C43.736 24.3636 44.0902 24.2178 44.4841 24.1193C44.8819 24.017 45.2929 23.9432 45.7171 23.8977C46.2285 23.8447 46.6432 23.7973 46.9614 23.7557C47.2796 23.7102 47.5107 23.642 47.6546 23.5511C47.8023 23.4564 47.8762 23.3106 47.8762 23.1136V23.0795C47.8762 22.6515 47.7493 22.3201 47.4955 22.0852C47.2417 21.8504 46.8762 21.733 46.3989 21.733C45.8951 21.733 45.4955 21.8428 45.2001 22.0625C44.9084 22.2822 44.7114 22.5417 44.6091 22.8409L42.6887 22.5682C42.8402 22.0379 43.0902 21.5947 43.4387 21.2386C43.7872 20.8788 44.2133 20.6098 44.7171 20.4318C45.2209 20.25 45.7777 20.1591 46.3876 20.1591C46.808 20.1591 47.2266 20.2083 47.6432 20.3068C48.0599 20.4053 48.4406 20.5682 48.7853 20.7955C49.13 21.0189 49.4065 21.3239 49.6148 21.7102C49.827 22.0966 49.933 22.5795 49.933 23.1591V29H47.9557V27.8011H47.8876C47.7626 28.0436 47.5864 28.2708 47.3591 28.483C47.1357 28.6913 46.8535 28.8598 46.5126 28.9886C46.1754 29.1136 45.7796 29.1761 45.3251 29.1761ZM45.8591 27.6648C46.272 27.6648 46.63 27.5833 46.933 27.4205C47.236 27.2538 47.469 27.0341 47.6319 26.7614C47.7985 26.4886 47.8819 26.1913 47.8819 25.8693V24.8409C47.8175 24.8939 47.7076 24.9432 47.5523 24.9886C47.4008 25.0341 47.2304 25.0739 47.041 25.108C46.8516 25.142 46.6641 25.1723 46.4785 25.1989C46.2929 25.2254 46.1319 25.2481 45.9955 25.267C45.6887 25.3087 45.4141 25.3769 45.1716 25.4716C44.9292 25.5663 44.7379 25.6989 44.5978 25.8693C44.4576 26.036 44.3876 26.2519 44.3876 26.517C44.3876 26.8958 44.5258 27.1818 44.8023 27.375C45.0788 27.5682 45.4311 27.6648 45.8591 27.6648ZM56.298 17.3636V29H54.2412V17.3636H56.298Z" fill="#56E1CD"/>
</svg>
